<svg width="32" height="32" viewBox="0 0 32 32" fill="none" xmlns="http://www.w3.org/2000/svg">
<path d="M16 27.7664C15.6439 27.7641 15.2938 27.6748 14.98 27.5064L6.00003 22.6264C5.65849 22.4451 5.37262 22.1745 5.173 21.8433C4.97338 21.5122 4.8675 21.133 4.8667 20.7464V11.253C4.8675 10.8664 4.97338 10.4872 5.173 10.1561C5.37262 9.82495 5.65849 9.55429 6.00003 9.37304L15 4.49304C15.313 4.32266 15.6637 4.2334 16.02 4.2334C16.3764 4.2334 16.7271 4.32266 17.04 4.49304L21.4867 6.89971L23.42 7.95304L26 9.37304C26.3379 9.55694 26.6197 9.82875 26.8157 10.1597C27.0116 10.4906 27.1145 10.8684 27.1134 11.253V20.7464C27.1145 21.131 27.0116 21.5088 26.8157 21.8397C26.6197 22.1707 26.3379 22.4425 26 22.6264L17 27.5064C16.6923 27.6717 16.3494 27.7608 16 27.7664Z" fill="white"/>
<path d="M16 4.7334C16.2727 4.73393 16.5408 4.80269 16.78 4.9334L21.2267 7.3334L23.16 8.38674L25.78 9.80674C26.0457 9.94411 26.2687 10.1515 26.425 10.4065C26.5813 10.6615 26.6649 10.9543 26.6667 11.2534V20.7467C26.6669 21.0413 26.5877 21.3304 26.4376 21.5838C26.2874 21.8372 26.0718 22.0455 25.8134 22.1867L16.78 27.0667C16.541 27.198 16.2727 27.2669 16 27.2669C15.7273 27.2669 15.4591 27.198 15.22 27.0667L6.22004 22.1867C5.96161 22.0455 5.74599 21.8372 5.59583 21.5838C5.44568 21.3304 5.36653 21.0413 5.36671 20.7467V11.2534C5.36653 10.9589 5.44568 10.6697 5.59583 10.4163C5.74599 10.163 5.96161 9.95468 6.22004 9.8134L15.22 4.9334C15.4593 4.80269 15.7274 4.73393 16 4.7334ZM16 3.7334C15.5619 3.73249 15.1308 3.84258 14.7467 4.0534L5.74671 8.9334C5.32827 9.15903 4.97891 9.49399 4.73588 9.90257C4.49285 10.3111 4.36526 10.778 4.36671 11.2534V20.7467C4.36885 21.2206 4.49722 21.6853 4.7386 22.0931C4.97998 22.5008 5.32565 22.8369 5.74004 23.0667L14.7467 27.9467C15.1317 28.1586 15.564 28.2697 16.0034 28.2697C16.4428 28.2697 16.8751 28.1586 17.26 27.9467L26.2534 23.0667C26.669 22.8378 27.016 22.5021 27.2586 22.0943C27.5012 21.6864 27.6306 21.2213 27.6334 20.7467V11.2534C27.6312 10.7796 27.5029 10.3148 27.2615 9.90707C27.0201 9.4993 26.6744 9.16322 26.26 8.9334L23.6334 7.5134L21.7067 6.46007L17.2534 4.0534C16.8693 3.84258 16.4381 3.73249 16 3.7334Z" fill="#2E3137"/>
<path d="M25.78 9.81288L23.16 8.39288L21.28 7.36621C21.1221 9.17556 20.5432 10.9229 19.5895 12.4686C18.6359 14.0144 17.3339 15.3156 15.7877 16.2685C14.2415 17.2213 12.4939 17.7994 10.6845 17.9564C8.87503 18.1134 7.05394 17.8451 5.3667 17.1729V20.7462C5.36652 21.0407 5.44567 21.3299 5.59582 21.5833C5.74597 21.8367 5.9616 22.0449 6.22003 22.1862L15.22 27.0662C15.459 27.1975 15.7273 27.2664 16 27.2664C16.2727 27.2664 16.541 27.1975 16.78 27.0662L25.78 22.1862C26.0447 22.0494 26.2671 21.843 26.4233 21.5893C26.5795 21.3356 26.6637 21.0441 26.6667 20.7462V11.2529C26.6637 10.955 26.5795 10.6635 26.4233 10.4098C26.2671 10.1561 26.0447 9.94972 25.78 9.81288Z" fill="#FFC400"/>
<path d="M18.6667 21.6199C18.4356 21.615 18.2082 21.5604 18 21.4599L16.2333 20.5332C16.1618 20.4942 16.0816 20.4737 16 20.4737C15.9185 20.4737 15.8382 20.4942 15.7667 20.5332L14.0333 21.4466C13.8143 21.5581 13.5725 21.6174 13.3267 21.6199C12.921 21.617 12.5329 21.454 12.2467 21.1666C12.1091 21.0282 12.0004 20.8638 11.9272 20.6829C11.8539 20.5021 11.8175 20.3084 11.82 20.1133C11.82 20.0466 11.82 19.9799 11.82 19.8999L12.1533 17.8999C12.1737 17.8303 12.1737 17.7562 12.1533 17.6866C12.1335 17.5971 12.087 17.5158 12.02 17.4533L10.6133 16.0799C10.4106 15.8828 10.2675 15.6325 10.2003 15.3578C10.1331 15.0831 10.1445 14.7951 10.2333 14.5266C10.3196 14.2593 10.4801 14.0221 10.6962 13.8427C10.9122 13.6633 11.1748 13.549 11.4533 13.5133L13.3933 13.2266C13.4754 13.2115 13.5529 13.1778 13.6199 13.1281C13.687 13.0784 13.7417 13.014 13.78 12.9399L14.6667 11.2133C14.7945 10.9703 14.9863 10.767 15.2213 10.6251C15.4562 10.4832 15.7255 10.4082 16 10.4082C16.2745 10.4082 16.5438 10.4832 16.7788 10.6251C17.0138 10.767 17.2055 10.9703 17.3333 11.2133L18.2 12.9733C18.2402 13.0446 18.2958 13.1061 18.3626 13.1534C18.4295 13.2006 18.506 13.2325 18.5867 13.2466H18.6467L20.5333 13.5199C20.8854 13.5643 21.2084 13.7377 21.44 14.0066C21.6977 14.2962 21.8339 14.6739 21.8202 15.0613C21.8066 15.4487 21.6441 15.8159 21.3667 16.0866L20 17.4733C19.9396 17.5293 19.894 17.5994 19.8673 17.6773C19.8405 17.7553 19.8335 17.8386 19.8467 17.9199L20.18 19.8599C20.2179 20.0737 20.2083 20.2933 20.1518 20.503C20.0954 20.7127 19.9935 20.9074 19.8533 21.0733C19.7093 21.2476 19.5278 21.3873 19.3224 21.4819C19.1169 21.5765 18.8928 21.6237 18.6667 21.6199Z" fill="white"/>
<path d="M16.0001 10.8803C16.1871 10.8777 16.371 10.9284 16.5304 11.0264C16.6897 11.1243 16.8179 11.2656 16.9001 11.4336L17.7667 13.1936C17.8409 13.3359 17.9469 13.4592 18.0764 13.554C18.2058 13.6488 18.3554 13.7125 18.5134 13.7403L20.4534 14.0203C20.6857 14.0502 20.8991 14.164 21.0534 14.3403C21.2278 14.5328 21.321 14.7853 21.3135 15.045C21.3061 15.3047 21.1985 15.5514 21.0134 15.7336L19.6067 17.107C19.4904 17.2213 19.4045 17.363 19.3568 17.519C19.309 17.675 19.301 17.8404 19.3334 18.0003L19.6601 19.9336C19.6865 20.0789 19.6806 20.2283 19.6428 20.371C19.605 20.5138 19.5363 20.6465 19.4415 20.7598C19.3467 20.873 19.2282 20.964 19.0943 21.0263C18.9604 21.0886 18.8144 21.1207 18.6667 21.1203C18.5026 21.1168 18.3412 21.0782 18.1934 21.007L16.4601 20.0936C16.3171 20.0148 16.1566 19.9735 15.9934 19.9735C15.8302 19.9735 15.6696 20.0148 15.5267 20.0936L13.7934 21.007C13.6455 21.0782 13.4841 21.1168 13.3201 21.1203C13.0542 21.1203 12.7992 21.0152 12.6106 20.8278C12.422 20.6405 12.3151 20.3861 12.3134 20.1203C12.3101 20.0626 12.3101 20.0047 12.3134 19.947L12.6667 18.0003C12.7066 17.8518 12.7066 17.6954 12.6667 17.547C12.6189 17.379 12.5268 17.2271 12.4001 17.107L11.0001 15.7336C10.8642 15.6038 10.7677 15.4382 10.7216 15.256C10.6755 15.0738 10.6817 14.8823 10.7394 14.7034C10.7972 14.5246 10.9042 14.3656 11.0482 14.2448C11.1921 14.124 11.3672 14.0462 11.5534 14.0203L13.4934 13.7403C13.6565 13.7145 13.811 13.6503 13.9443 13.5529C14.0777 13.4555 14.1859 13.3278 14.2601 13.1803L15.1267 11.4203C15.2087 11.2588 15.3336 11.123 15.4876 11.0277C15.6417 10.9325 15.8189 10.8815 16.0001 10.8803ZM16.0001 9.88029C15.6259 9.87893 15.2589 9.98254 14.9407 10.1793C14.6225 10.3762 14.3659 10.6583 14.2001 10.9936L13.3334 12.7536L11.4067 13.0336C11.0358 13.0863 10.6871 13.2422 10.4004 13.4834C10.1138 13.7246 9.9006 14.0415 9.78525 14.398C9.66991 14.7545 9.65701 15.1362 9.74802 15.4996C9.83904 15.863 10.0303 16.1936 10.3001 16.4536L11.7001 17.827L11.3334 19.7803C11.3365 19.7934 11.3365 19.8071 11.3334 19.8203C11.3272 19.9202 11.3272 20.0204 11.3334 20.1203C11.3303 20.3786 11.3789 20.6349 11.4762 20.8741C11.5735 21.1134 11.7176 21.3308 11.9001 21.5136C12.0882 21.7047 12.3123 21.8567 12.5594 21.9608C12.8066 22.0649 13.0719 22.1191 13.3401 22.1203C13.6522 22.1172 13.9597 22.0443 14.2401 21.907H14.2801L16.0001 20.9736L17.7401 21.8936H17.7734C18.0537 22.031 18.3612 22.1038 18.6734 22.107C18.9679 22.1114 19.2598 22.0508 19.5282 21.9293C19.7966 21.8079 20.0348 21.6287 20.2259 21.4045C20.4169 21.1803 20.5561 20.9167 20.6335 20.6324C20.7109 20.3482 20.7245 20.0504 20.6734 19.7603L20.3467 17.827L21.7467 16.447C22.118 16.0866 22.3352 15.5963 22.3526 15.0791C22.37 14.562 22.1863 14.0582 21.84 13.6736C21.5371 13.313 21.1126 13.0759 20.6467 13.007L18.7801 12.7403H18.7001L17.8401 11.007C17.6732 10.6629 17.4111 10.3739 17.085 10.1742C16.7589 9.97455 16.3824 9.87254 16.0001 9.88029Z" fill="#2E3137"/>
</svg>
